<?xml version="1.0" encoding="UTF-8"?>
<svg id="Layer_1" data-name="Layer 1" xmlns="http://www.w3.org/2000/svg" viewBox="0 0 103.83 143.66">
  <defs>
    <style>
      .cls-1 {
        fill: #39516f;
      }
    </style>
  </defs>
  <path class="cls-1" d="M94.3,17.85c.87.63,3.43,4.21,3.99,5.25.73,1.37,3.01,6.89,3.25,8.26.11.6.15,1.46,0,2.04-.21.83-2.72,2.61-3.55,3.17-11.32,7.64-27.52,16.39-33.15,29.49-2.61,6.08-1.03,11.44-.44,17.56.9,9.42-.51,21.12-3.89,29.94-1.01,2.65-2.44,5.13-3.55,7.73.52.03.95-.81,1.21-1.19,6.35-9.78,9.04-24.75,8.41-36.25-.28-5-1.84-9.16-.43-14.33.09-.31.82-2.46.93-2.55.78-.63,1.7,1.52,2.25,2.13,3.8,4.21,15.65,3.2,20.77,1.8,1.09-.3,3.47-1.56,4.39-1.29.61.18,1.76,2.85,1.97,3.56,3.63,11.8-4.18,30.57-10.04,41.09-6.41,11.5-18.89,28.41-34.1,25.85-8.79-1.48-21.32-13.53-27.28-20.01-9.39-10.22-18.62-23.4-20.86-37.46-1.66-10.44,7.89-25.38,16.81-30.45,1.53-.87,4.53-1.54,6.21-.97,1.43.49,5.52,4.54,6.61,5.87,6.43,7.78,9.96,17.46,13.16,26.92l1.83,4.76c-.48-5.08-2.1-10.17-3.9-14.94-2.75-7.33-5.77-13.18-10.75-19.25-.48-.59-2.64-2.39-2.64-2.89.59-.98,1.47-1.75,2.08-2.73,2.61-4.14,4.26-8.19,8.79-10.89,2.25-1.35,4.86-1.06,4.24-4.6-.12-.7-.84-1.6-.95-2.4-.51-3.71,4.6-6.15,7.5-7.16,1.85-.64,5.62-1.65,7.46-1.09.2.06,2.23,2.43,2.92,2.84,1.28.77,4.53.91,6,.7,3.9-.56,12.82-4.78,16.77-6.51.75-.33,1.59-.52,2.3-.82,1.99-.87,3.47-2.79,5.68-1.19h0ZM95.95,22.44c-.85-1.25-1.72-2.49-2.87-3.49-.52-.1-.37.23-.35.59.13,3.17,4.06,10.49,6.23,12.9.14.15.92.72.96.66,0-.58.05-1.16-.06-1.74-.44-2.3-2.57-6.94-3.91-8.92Z"/>
  <path class="cls-1" d="M60.6,12.66c1.76,1.03,1.99-2.37,2.5-3.54.27-.61,2.17-4.48,2.42-4.56,2.77.54,5.39,1.77,7.96,2.9l-2.61,9.63c1.09.75,2.25,1.46,3.24,2.33.53.46,2.69,2.32,2.02,3.09-3.87.8-8.19,3.26-12.05,1.18-1.29-.69-1.57-2.22-2.98-2.54-.79-.17-3.18-.17-4.02-.07-3.38.4-9.84,2.82-11.98,5.53-1.14,1.44-1.57,2.83-1.34,4.68.15,1.19,1.43,2.49.74,3.61-.5.81-3.54,1.8-4.52,2.43-3.93,2.54-6.07,8.07-8.7,11.71-.29.41-1.32,1.77-1.92,1.47-.44-.22-1.38-2.45-1.56-3.02-2.5-8.02-2.91-14.81.03-22.78.98-2.67,5.02-7.69,7.61-8.95,1.14-.55,2.43-.68,3.54-1.3.21-.76-1.7-4.65-1.9-5.8-.07-.39-.09-.59.18-.92.22-.28,5.74-2.7,6.44-2.93.56-.18,1.06-.44,1.51.12.72.9,3.22,6.74,3.64,6.98.32.18.99,0,1.39.05l.51-8.61c1.16-.5,2.46-.2,3.68-.28.41-.03.8-.22,1.2-.23.94-.03,3.79-.35,3.96.6l1,9.2v.02Z"/>
  <path class="cls-1" d="M30.46,17.4c-.44.68-1.45,1.55-1.91,2.29-4.48,7.17-5.75,14.96-3.83,23.21.23,1,2,5.83,1.73,6.25-1.1.53-2.61.29-3.68.52-5.37,1.16-12.3,8.69-15.02,13.3-1.17,1.99-1.78,4.3-3.24,6.12-.45.01-1.48-2.58-1.67-3.13-3.7-10.65,3.02-22.79,5.85-33.01,1.69-6.11,2.75-12.45,4.05-18.51.49-2.29-.26-3.54,2.64-4.32,3.64-.98,10.14-1.06,13.74.05.71.22,2.24.91,2.39,1.69.36,1.84-.05,3.98-1.06,5.54h.01ZM14.48,12.22c1.04,1.13,3.63,1.35,5.15,1.45,3.21.2,7.37.25,10.21-1.33,0-.33-2.35-.94-2.81-1.02-3.07-.56-6.65-.54-9.72,0-.97.17-1.92.52-2.82.9h-.01Z"/>
  <path class="cls-1" d="M88.98,48.84c3.48,4.25,5.96,11.5,5.44,17.03-.12,1.24-.63,1.63-1.72,2.12-4.64,2.09-14.89,3.33-19.63,1.43-5.8-2.33-3.65-7.84-.19-11.29s7.78-6.78,11.86-9.67c.61-.43,1.62-1.2,2.34-1.23,1.25-.05,1.25.82,1.89,1.6h.01Z"/>
</svg>